<svg width="60" height="84" viewBox="0 0 60 84" fill="none" xmlns="http://www.w3.org/2000/svg">
<path d="M29.9391 0.513672C13.7319 0.513672 0.546875 13.7154 0.546875 29.9432C0.546875 45.6412 27.4183 81.4068 28.5629 82.9233C28.8845 83.3562 29.3998 83.6088 29.9392 83.6088C30.4787 83.6088 30.994 83.3562 31.3155 82.9233C32.4601 81.4068 59.3316 45.6413 59.3316 29.9432C59.3313 13.7154 46.1463 0.513672 29.9391 0.513672ZM29.9391 45.5235C21.36 45.5235 14.3785 38.5331 14.3785 29.9432C14.3785 21.3532 21.36 14.3628 29.9391 14.3628C38.5182 14.3628 45.4997 21.3532 45.4997 29.9432C45.4997 38.5331 38.5182 45.5235 29.9391 45.5235Z" fill="#EB5757"/>
</svg>
