<svg width="59" height="84" viewBox="0 0 59 84" fill="none" xmlns="http://www.w3.org/2000/svg">
<path d="M29.4948 0.0546875C13.2876 0.0546875 0.102539 13.2564 0.102539 29.4842C0.102539 45.1822 26.974 80.9479 28.1186 82.4644C28.4402 82.8972 28.9555 83.1499 29.495 83.1499C30.0344 83.1499 30.5497 82.8972 30.8713 82.4644C32.0158 80.9479 58.8874 45.1824 58.8874 29.4842C58.8871 13.2564 45.702 0.0546875 29.4948 0.0546875ZM29.4948 45.0645C20.9157 45.0645 13.9342 38.0742 13.9342 29.4842C13.9342 20.8942 20.9157 13.9038 29.4948 13.9038C38.0739 13.9038 45.0554 20.8942 45.0554 29.4842C45.0554 38.0742 38.0739 45.0645 29.4948 45.0645Z" fill="url(#paint0_linear)"/>
<defs>
<linearGradient id="paint0_linear" x1="-10.8737" y1="0.0546871" x2="73.3655" y2="18.145" gradientUnits="userSpaceOnUse">
<stop stop-color="#4BD8B5"/>
<stop offset="1" stop-color="#49D6DF"/>
</linearGradient>
</defs>
</svg>
