<svg width="65" height="42" viewBox="0 0 65 42" fill="none" xmlns="http://www.w3.org/2000/svg">
<rect width="65" height="42" fill="#E5E5E5"/>
<g clip-path="url(#clip0)">
<rect width="1920" height="6403" transform="translate(-148 -26)" fill="#FBFBFB"/>
<g filter="url(#filter0_d)">
<rect width="1920" height="94" transform="translate(-148 -26)" fill="white"/>
<g filter="url(#filter1_d)">
<path d="M11.6484 18.4297H20.3145V23H4.16016V19.6953L12.5977 8.55078H4.5293V3.98047H20.1211V7.17969L11.6484 18.4297ZM22.1602 13.3145C22.1602 11.416 22.5293 9.72852 23.2676 8.25195C24.0059 6.76367 25.0664 5.62109 26.4492 4.82422C27.832 4.02734 29.4551 3.62891 31.3184 3.62891C34.166 3.62891 36.4102 4.51367 38.0508 6.2832C39.6914 8.04102 40.5117 10.4375 40.5117 13.4727V13.6836C40.5117 16.6484 39.6855 19.0039 38.0332 20.75C36.3926 22.4844 34.166 23.3516 31.3535 23.3516C28.6465 23.3516 26.4727 22.543 24.832 20.9258C23.1914 19.2969 22.3066 17.0938 22.1777 14.3164L22.1602 13.3145ZM28.084 13.6836C28.084 15.4414 28.3594 16.7305 28.9102 17.5508C29.4609 18.3711 30.2754 18.7812 31.3535 18.7812C33.4629 18.7812 34.541 17.1582 34.5879 13.9121V13.3145C34.5879 9.9043 33.498 8.19922 31.3184 8.19922C29.3379 8.19922 28.2656 9.66992 28.1016 12.6113L28.084 13.6836ZM42.375 13.3145C42.375 11.416 42.7441 9.72852 43.4824 8.25195C44.2207 6.76367 45.2812 5.62109 46.6641 4.82422C48.0469 4.02734 49.6699 3.62891 51.5332 3.62891C54.3809 3.62891 56.625 4.51367 58.2656 6.2832C59.9062 8.04102 60.7266 10.4375 60.7266 13.4727V13.6836C60.7266 16.6484 59.9004 19.0039 58.248 20.75C56.6074 22.4844 54.3809 23.3516 51.5684 23.3516C48.8613 23.3516 46.6875 22.543 45.0469 20.9258C43.4062 19.2969 42.5215 17.0938 42.3926 14.3164L42.375 13.3145ZM48.2988 13.6836C48.2988 15.4414 48.5742 16.7305 49.125 17.5508C49.6758 18.3711 50.4902 18.7812 51.5684 18.7812C53.6777 18.7812 54.7559 17.1582 54.8027 13.9121V13.3145C54.8027 9.9043 53.7129 8.19922 51.5332 8.19922C49.5527 8.19922 48.4805 9.66992 48.3164 12.6113L48.2988 13.6836Z" fill="#333333"/>
</g>
<path d="M4.45703 35.1572C4.45703 34.208 4.6416 33.3643 5.01074 32.626C5.37988 31.8818 5.91016 31.3105 6.60156 30.9121C7.29297 30.5137 8.10449 30.3145 9.03613 30.3145C10.46 30.3145 11.582 30.7568 12.4023 31.6416C13.2227 32.5205 13.6328 33.7188 13.6328 35.2363V35.3418C13.6328 36.8242 13.2197 38.002 12.3936 38.875C11.5732 39.7422 10.46 40.1758 9.05371 40.1758C7.7002 40.1758 6.61328 39.7715 5.79297 38.9629C4.97266 38.1484 4.53027 37.0469 4.46582 35.6582L4.45703 35.1572ZM7.41895 35.3418C7.41895 36.2207 7.55664 36.8652 7.83203 37.2754C8.10742 37.6855 8.51465 37.8906 9.05371 37.8906C10.1084 37.8906 10.6475 37.0791 10.6709 35.4561V35.1572C10.6709 33.4521 10.126 32.5996 9.03613 32.5996C8.0459 32.5996 7.50977 33.335 7.42773 34.8057L7.41895 35.3418ZM19.0982 30.4902L19.1949 31.6064C19.8511 30.7451 20.7564 30.3145 21.9107 30.3145C22.9009 30.3145 23.6392 30.6104 24.1255 31.2021C24.6177 31.7939 24.8726 32.6846 24.8902 33.874V40H21.9195V33.9971C21.9195 33.5166 21.8228 33.165 21.6295 32.9424C21.4361 32.7139 21.0845 32.5996 20.5748 32.5996C19.9947 32.5996 19.564 32.8281 19.2828 33.2852V40H16.3209V30.4902H19.0982ZM31.1027 40H28.132V26.5H31.1027V40ZM37.4997 40H34.529V30.4902H37.4997V40ZM34.3532 28.0381C34.3532 27.6162 34.5055 27.2705 34.8102 27.001C35.1149 26.7314 35.5104 26.5967 35.9968 26.5967C36.4831 26.5967 36.8786 26.7314 37.1833 27.001C37.488 27.2705 37.6403 27.6162 37.6403 28.0381C37.6403 28.46 37.488 28.8057 37.1833 29.0752C36.8786 29.3447 36.4831 29.4795 35.9968 29.4795C35.5104 29.4795 35.1149 29.3447 34.8102 29.0752C34.5055 28.8057 34.3532 28.46 34.3532 28.0381ZM43.4924 30.4902L43.5891 31.6064C44.2454 30.7451 45.1506 30.3145 46.3049 30.3145C47.2952 30.3145 48.0334 30.6104 48.5198 31.2021C49.012 31.7939 49.2668 32.6846 49.2844 33.874V40H46.3137V33.9971C46.3137 33.5166 46.217 33.165 46.0237 32.9424C45.8303 32.7139 45.4788 32.5996 44.969 32.5996C44.3889 32.5996 43.9582 32.8281 43.677 33.2852V40H40.7151V30.4902H43.4924ZM56.9734 40.1758C55.5145 40.1758 54.3338 39.7422 53.4314 38.875C52.5291 38.002 52.0779 36.8682 52.0779 35.4736V35.2275C52.0779 34.2549 52.2566 33.3965 52.6141 32.6523C52.9773 31.9082 53.5047 31.334 54.1961 30.9297C54.8875 30.5195 55.7078 30.3145 56.657 30.3145C57.993 30.3145 59.0477 30.7305 59.8211 31.5625C60.5945 32.3887 60.9813 33.543 60.9813 35.0254V36.1768H55.0926C55.198 36.71 55.4295 37.1289 55.7869 37.4336C56.1443 37.7383 56.6072 37.8906 57.1756 37.8906C58.1131 37.8906 58.8455 37.5625 59.3729 36.9062L60.7264 38.5059C60.3572 39.0156 59.8328 39.4229 59.1531 39.7275C58.4793 40.0264 57.7527 40.1758 56.9734 40.1758ZM56.6395 32.5996C55.7723 32.5996 55.2566 33.1738 55.0926 34.3223H58.0809V34.0938C58.0926 33.6191 57.9725 33.2529 57.7205 32.9951C57.4686 32.7314 57.1082 32.5996 56.6395 32.5996Z" fill="#333333"/>
</g>
</g>
<defs>
<filter id="filter0_d" x="-156" y="-30" width="1936" height="110" filterUnits="userSpaceOnUse" color-interpolation-filters="sRGB">
<feFlood flood-opacity="0" result="BackgroundImageFix"/>
<feColorMatrix in="SourceAlpha" type="matrix" values="0 0 0 0 0 0 0 0 0 0 0 0 0 0 0 0 0 0 127 0"/>
<feOffset dy="4"/>
<feGaussianBlur stdDeviation="4"/>
<feColorMatrix type="matrix" values="0 0 0 0 0.171528 0 0 0 0 0.395833 0 0 0 0 0.301625 0 0 0 0.08 0"/>
<feBlend mode="normal" in2="BackgroundImageFix" result="effect1_dropShadow"/>
<feBlend mode="normal" in="SourceGraphic" in2="effect1_dropShadow" result="shape"/>
</filter>
<filter id="filter1_d" x="0.160156" y="3.62891" width="64.5664" height="27.7227" filterUnits="userSpaceOnUse" color-interpolation-filters="sRGB">
<feFlood flood-opacity="0" result="BackgroundImageFix"/>
<feColorMatrix in="SourceAlpha" type="matrix" values="0 0 0 0 0 0 0 0 0 0 0 0 0 0 0 0 0 0 127 0"/>
<feOffset dy="4"/>
<feGaussianBlur stdDeviation="2"/>
<feColorMatrix type="matrix" values="0 0 0 0 0 0 0 0 0 0 0 0 0 0 0 0 0 0 0.25 0"/>
<feBlend mode="normal" in2="BackgroundImageFix" result="effect1_dropShadow"/>
<feBlend mode="normal" in="SourceGraphic" in2="effect1_dropShadow" result="shape"/>
</filter>
<clipPath id="clip0">
<rect width="1920" height="6403" fill="white" transform="translate(-148 -26)"/>
</clipPath>
</defs>
</svg>
